<svg xmlns="http://www.w3.org/2000/svg" viewBox="0 0 1200 630" width="1200" height="630">
  
  <rect width="1200" height="630" fill="#0C0C0C"></rect>

  
  <g stroke="#FAFAF7" stroke-width="2" opacity="0.18">
    <line x1="80" y1="40" x2="80" y2="60"></line>
    <line x1="40" y1="80" x2="80" y2="80"></line>
    <line x1="1120" y1="40" x2="1120" y2="60"></line>
    <line x1="1120" y1="80" x2="1160" y2="80"></line>
    <line x1="80" y1="570" x2="80" y2="590"></line>
    <line x1="40" y1="590" x2="80" y2="590"></line>
    <line x1="1120" y1="570" x2="1120" y2="590"></line>
    <line x1="1120" y1="590" x2="1160" y2="590"></line>
  </g>

  
  <svg x="80" y="80" width="96" height="96" viewBox="0 0 64 64" overflow="visible">
    <defs><clipPath id="clip-dark"><path d="M22 12 C 22 8, 30 6, 32 10 C 36 6, 44 8, 44 14 C 50 12, 56 18, 52 24 C 58 28, 56 36, 50 38 C 54 44, 48 52, 40 50 C 38 56, 28 56, 26 52 C 18 54, 12 48, 14 42 C 8 40, 6 32, 12 30 C 8 24, 12 16, 18 18 C 18 14, 20 12, 22 12 Z"></path></clipPath></defs>
    <g clip-path="url(#clip-dark)">
      <rect x="0" y="0" width="32" height="64" fill="#FAFAF7"></rect>
      <rect x="32" y="0" width="32" height="64" fill="#3DCD8B"></rect>
    </g>
    <path d="M22 12 C 22 8, 30 6, 32 10 C 36 6, 44 8, 44 14 C 50 12, 56 18, 52 24 C 58 28, 56 36, 50 38 C 54 44, 48 52, 40 50 C 38 56, 28 56, 26 52 C 18 54, 12 48, 14 42 C 8 40, 6 32, 12 30 C 8 24, 12 16, 18 18 C 18 14, 20 12, 22 12 Z" stroke="#FAFAF7" stroke-width="2.6" stroke-linejoin="round" fill="none"></path>
    <line x1="32" y1="10" x2="32" y2="52" stroke="#FAFAF7" stroke-width="1.8" stroke-linecap="round"></line>
    <path d="M14 22 C 20 19, 26 22, 30 21" stroke="#0C0C0C" stroke-width="1.6" stroke-linecap="round" fill="none"></path>
    <path d="M12 32 C 18 28, 26 33, 30 31" stroke="#0C0C0C" stroke-width="1.6" stroke-linecap="round" fill="none"></path>
    <path d="M14 42 C 20 39, 26 43, 30 41" stroke="#0C0C0C" stroke-width="1.6" stroke-linecap="round" fill="none"></path>
    <g clip-path="url(#clip-dark)">
      <circle cx="36" cy="22" r="1.5" fill="#0C0C0C"></circle>
      <line x1="38.5" y1="22" x2="50" y2="22" stroke="#0C0C0C" stroke-width="1.7" stroke-linecap="round"></line>
      <circle cx="36" cy="32" r="1.5" fill="#0C0C0C"></circle>
      <line x1="38.5" y1="32" x2="52" y2="32" stroke="#0C0C0C" stroke-width="1.7" stroke-linecap="round"></line>
      <circle cx="36" cy="42" r="1.5" fill="#0C0C0C"></circle>
      <line x1="38.5" y1="42" x2="50" y2="42" stroke="#0C0C0C" stroke-width="1.7" stroke-linecap="round"></line>
    </g></svg>

  
  <text x="80" y="286" font-family="&#39;JetBrains Mono&#39;, ui-monospace, SFMono-Regular, Menlo, monospace" font-weight="700" font-size="80" fill="#FAFAF7" letter-spacing="-2">schemabrain</text>

  
  <rect x="80" y="308" width="60" height="4" fill="#3DCD8B"></rect>

  
  <text x="80" y="372" font-family="&#39;Inter&#39;, system-ui, -apple-system, &#39;Segoe UI&#39;, Roboto, sans-serif" font-weight="400" font-size="26" fill="#FAFAF7" opacity="0.85" letter-spacing="-0.3">The trust and intelligence layer</text>
  <text x="80" y="412" font-family="&#39;Inter&#39;, system-ui, -apple-system, &#39;Segoe UI&#39;, Roboto, sans-serif" font-weight="400" font-size="26" fill="#FAFAF7" opacity="0.85" letter-spacing="-0.3">between AI agents and your database.</text>

  
  <text x="80" y="590" font-family="&#39;JetBrains Mono&#39;, ui-monospace, SFMono-Regular, Menlo, monospace" font-weight="700" font-size="14" fill="#FAFAF7" opacity="0.6" letter-spacing="1">open source · Apache-2.0 · MCP-native</text>

  
  <g transform="translate(640,215)">
    
    <g font-family="&#39;JetBrains Mono&#39;, ui-monospace, SFMono-Regular, Menlo, monospace" font-weight="700" font-size="11" fill="#FAFAF7" text-anchor="middle">
      <text x="141" y="82" opacity="0.6">MCP tools</text>
      <text x="141" y="96" opacity="0.6">(read-only)</text>
    </g>
    
    <g font-family="&#39;JetBrains Mono&#39;, ui-monospace, SFMono-Regular, Menlo, monospace" font-weight="700" font-size="11" fill="#FAFAF7" text-anchor="middle">
      <text x="321" y="82" opacity="0.6">parameterized</text>
      <text x="321" y="96" opacity="0.6">SQL</text>
    </g>

    
    <rect x="0" y="60" width="110" height="100" fill="#0C0C0C" stroke="#FAFAF7" stroke-width="3"></rect>
    <text x="55" y="116" font-family="&#39;JetBrains Mono&#39;, ui-monospace, SFMono-Regular, Menlo, monospace" font-weight="700" font-size="16" fill="#FAFAF7" text-anchor="middle" letter-spacing="1">AGENT</text>

    
    <rect x="180" y="60" width="110" height="100" fill="#0C0C0C" stroke="#3DCD8B" stroke-width="3"></rect>
    <svg x="217" y="74" width="36" height="36" viewBox="0 0 64 64" overflow="visible">
    <defs><clipPath id="clip-inner-dark"><path d="M22 12 C 22 8, 30 6, 32 10 C 36 6, 44 8, 44 14 C 50 12, 56 18, 52 24 C 58 28, 56 36, 50 38 C 54 44, 48 52, 40 50 C 38 56, 28 56, 26 52 C 18 54, 12 48, 14 42 C 8 40, 6 32, 12 30 C 8 24, 12 16, 18 18 C 18 14, 20 12, 22 12 Z"></path></clipPath></defs>
    <g clip-path="url(#clip-inner-dark)">
      
      <rect x="32" y="0" width="32" height="64" fill="#3DCD8B"></rect>
    </g>
    <path d="M22 12 C 22 8, 30 6, 32 10 C 36 6, 44 8, 44 14 C 50 12, 56 18, 52 24 C 58 28, 56 36, 50 38 C 54 44, 48 52, 40 50 C 38 56, 28 56, 26 52 C 18 54, 12 48, 14 42 C 8 40, 6 32, 12 30 C 8 24, 12 16, 18 18 C 18 14, 20 12, 22 12 Z" stroke="#0C0C0C" stroke-width="2.6" stroke-linejoin="round" fill="none"></path>
    <line x1="32" y1="10" x2="32" y2="52" stroke="#0C0C0C" stroke-width="1.8" stroke-linecap="round"></line>
    <path d="M14 22 C 20 19, 26 22, 30 21" stroke="#0C0C0C" stroke-width="1.6" stroke-linecap="round" fill="none"></path>
    <path d="M12 32 C 18 28, 26 33, 30 31" stroke="#0C0C0C" stroke-width="1.6" stroke-linecap="round" fill="none"></path>
    <path d="M14 42 C 20 39, 26 43, 30 41" stroke="#0C0C0C" stroke-width="1.6" stroke-linecap="round" fill="none"></path>
    <g clip-path="url(#clip-inner-dark)">
      <circle cx="36" cy="22" r="1.5" fill="#FAFAF7"></circle>
      <line x1="38.5" y1="22" x2="50" y2="22" stroke="#FAFAF7" stroke-width="1.7" stroke-linecap="round"></line>
      <circle cx="36" cy="32" r="1.5" fill="#FAFAF7"></circle>
      <line x1="38.5" y1="32" x2="52" y2="32" stroke="#FAFAF7" stroke-width="1.7" stroke-linecap="round"></line>
      <circle cx="36" cy="42" r="1.5" fill="#FAFAF7"></circle>
      <line x1="38.5" y1="42" x2="50" y2="42" stroke="#FAFAF7" stroke-width="1.7" stroke-linecap="round"></line>
    </g></svg>
    <text x="235" y="144" font-family="&#39;JetBrains Mono&#39;, ui-monospace, SFMono-Regular, Menlo, monospace" font-weight="700" font-size="11" fill="#FAFAF7" text-anchor="middle" letter-spacing="0.8">schemabrain</text>

    
    <rect x="360" y="60" width="110" height="100" fill="#0C0C0C" stroke="#FAFAF7" stroke-width="3"></rect>
    <text x="415" y="116" font-family="&#39;JetBrains Mono&#39;, ui-monospace, SFMono-Regular, Menlo, monospace" font-weight="700" font-size="16" fill="#FAFAF7" text-anchor="middle" letter-spacing="1">POSTGRES</text>

    
    <line x1="114" y1="110" x2="168" y2="110" stroke="#FAFAF7" stroke-width="3" stroke-linecap="square"></line>
    <polyline points="160,104 168,110 160,116" stroke="#FAFAF7" stroke-width="3" fill="none" stroke-linejoin="miter" stroke-linecap="square"></polyline>
    
    <line x1="294" y1="110" x2="348" y2="110" stroke="#FAFAF7" stroke-width="3" stroke-linecap="square"></line>
    <polyline points="340,104 348,110 340,116" stroke="#FAFAF7" stroke-width="3" fill="none" stroke-linejoin="miter" stroke-linecap="square"></polyline>
  </g>
</svg>