<svg xmlns="http://www.w3.org/2000/svg" viewBox="0 0 1280 400" width="1280" height="400">
  <rect width="1280" height="400" fill="#0B0F14"></rect>
  <g stroke="#FAFAF7" opacity="0.04">
    <line x1="0" y1="80" x2="1280" y2="80"></line>
    <line x1="0" y1="160" x2="1280" y2="160"></line>
    <line x1="0" y1="240" x2="1280" y2="240"></line>
    <line x1="0" y1="320" x2="1280" y2="320"></line>
  </g>
  
  <svg x="80" y="100" width="200" height="200" viewBox="0 0 64 64" overflow="visible">
    <defs>
      <clipPath id="clip-rh"><path d="M22 12 C 22 8, 30 6, 32 10 C 36 6, 44 8, 44 14 C 50 12, 56 18, 52 24 C 58 28, 56 36, 50 38 C 54 44, 48 52, 40 50 C 38 56, 28 56, 26 52 C 18 54, 12 48, 14 42 C 8 40, 6 32, 12 30 C 8 24, 12 16, 18 18 C 18 14, 20 12, 22 12 Z"></path></clipPath>
    </defs>
    <g clip-path="url(#clip-rh)">
      <rect x="32" y="0" width="32" height="64" fill="#3ECF8E"></rect>
    </g>
    <path d="M22 12 C 22 8, 30 6, 32 10 C 36 6, 44 8, 44 14 C 50 12, 56 18, 52 24 C 58 28, 56 36, 50 38 C 54 44, 48 52, 40 50 C 38 56, 28 56, 26 52 C 18 54, 12 48, 14 42 C 8 40, 6 32, 12 30 C 8 24, 12 16, 18 18 C 18 14, 20 12, 22 12 Z" stroke="#FAFAF7" stroke-width="2.2" stroke-linejoin="round" fill="none"></path>
    <line x1="32" y1="10" x2="32" y2="52" stroke="#FAFAF7" stroke-width="1.6" stroke-linecap="round"></line>
    <path d="M14 22 C 20 19, 26 22, 30 21" stroke="#FAFAF7" stroke-width="1.4" stroke-linecap="round" fill="none"></path>
    <path d="M12 32 C 18 28, 26 33, 30 31" stroke="#FAFAF7" stroke-width="1.4" stroke-linecap="round" fill="none"></path>
    <path d="M14 42 C 20 39, 26 43, 30 41" stroke="#FAFAF7" stroke-width="1.4" stroke-linecap="round" fill="none"></path>
    <g clip-path="url(#clip-rh)">
      <circle cx="36" cy="22" r="1.4" fill="#0B0F14"></circle>
      <line x1="38.5" y1="22" x2="50" y2="22" stroke="#0B0F14" stroke-width="1.6" stroke-linecap="round"></line>
      <circle cx="36" cy="32" r="1.4" fill="#0B0F14"></circle>
      <line x1="38.5" y1="32" x2="52" y2="32" stroke="#0B0F14" stroke-width="1.6" stroke-linecap="round"></line>
      <circle cx="36" cy="42" r="1.4" fill="#0B0F14"></circle>
      <line x1="38.5" y1="42" x2="50" y2="42" stroke="#0B0F14" stroke-width="1.6" stroke-linecap="round"></line>
    </g>
  </svg>
  <g font-family="&#34;JetBrains Mono&#34;, ui-monospace, SFMono-Regular, Menlo, monospace">
    <text x="320" y="210" font-size="60" font-weight="600" fill="#FAFAF7" letter-spacing="-1.6">schemabrain</text>
    <text x="320" y="248" font-size="17" fill="#3ECF8E" letter-spacing="-0.2">// The safety and schema intelligence layer</text>
    <text x="320" y="274" font-size="17" fill="#3ECF8E" letter-spacing="-0.2">// for AI systems that interact with databases.</text>
  </g>
  <g font-family="&#34;JetBrains Mono&#34;, ui-monospace, SFMono-Regular, Menlo, monospace" font-size="13" fill="#FAFAF7" opacity="0.5">
    <text x="950" y="130" letter-spacing="0.5">┌─ AI</text>
    <text x="950" y="158" letter-spacing="0.5">│  ↓ query</text>
    <text x="950" y="186" letter-spacing="0.5">├─ schemabrain  ✓ safe</text>
    <text x="950" y="214" letter-spacing="0.5">│  ↓ validated</text>
    <text x="950" y="242" letter-spacing="0.5">└─ database</text>
  </g>
</svg>