<svg xmlns="http://www.w3.org/2000/svg" viewBox="0 0 512 512" width="512" height="512">
  <defs>
    <clipPath id="bi-brain">
      <path d="M176 96 C 176 64, 240 48, 256 80 C 288 48, 352 64, 352 112 C 400 96, 448 144, 416 192 C 464 224, 448 288, 400 304 C 432 352, 384 416, 320 400 C 304 448, 224 448, 208 416 C 144 432, 96 384, 112 336 C 64 320, 48 256, 96 240 C 64 192, 96 128, 144 144 C 144 112, 160 96, 176 96 Z"></path>
    </clipPath>
    <clipPath id="bi-card">
      <rect x="0" y="0" width="512" height="512" rx="96" ry="96"></rect>
    </clipPath>
  </defs>

  <g clip-path="url(#bi-card)">
    <rect width="512" height="512" fill="#FAFAF7"></rect>

    
    <g clip-path="url(#bi-brain)">
      <rect x="256" y="0" width="256" height="512" fill="#3ECF8E"></rect>
    </g>

    
    <path d="M176 96 C 176 64, 240 48, 256 80 C 288 48, 352 64, 352 112 C 400 96, 448 144, 416 192 C 464 224, 448 288, 400 304 C 432 352, 384 416, 320 400 C 304 448, 224 448, 208 416 C 144 432, 96 384, 112 336 C 64 320, 48 256, 96 240 C 64 192, 96 128, 144 144 C 144 112, 160 96, 176 96 Z" stroke="#0A0A0A" stroke-width="20" stroke-linejoin="round" fill="none"></path>

    
    <line x1="256" y1="80" x2="256" y2="416" stroke="#0A0A0A" stroke-width="16" stroke-linecap="round"></line>

    
    <path d="M112 176 C 160 152, 208 176, 240 168" stroke="#0A0A0A" stroke-width="14" stroke-linecap="round" fill="none"></path>
    <path d="M96 256 C 144 224, 208 264, 240 248" stroke="#0A0A0A" stroke-width="14" stroke-linecap="round" fill="none"></path>
    <path d="M112 336 C 160 312, 208 344, 240 328" stroke="#0A0A0A" stroke-width="14" stroke-linecap="round" fill="none"></path>

    
    <g clip-path="url(#bi-brain)">
      <circle cx="288" cy="176" r="14" fill="#FAFAF7"></circle>
      <line x1="312" y1="176" x2="400" y2="176" stroke="#FAFAF7" stroke-width="16" stroke-linecap="round"></line>
      <circle cx="288" cy="256" r="14" fill="#FAFAF7"></circle>
      <line x1="312" y1="256" x2="416" y2="256" stroke="#FAFAF7" stroke-width="16" stroke-linecap="round"></line>
      <circle cx="288" cy="336" r="14" fill="#FAFAF7"></circle>
      <line x1="312" y1="336" x2="400" y2="336" stroke="#FAFAF7" stroke-width="16" stroke-linecap="round"></line>
    </g>
  </g>
</svg>